<svg xmlns="http://www.w3.org/2000/svg" xmlns:xlink="http://www.w3.org/1999/xlink" width="20" height="24" version="1.1"><rect id="backgroundrect" width="100%" height="100%" x="0" y="0" fill="none" stroke="none"/>
    <!-- Generator: sketchtool 52.3 (67297) - http://www.bohemiancoding.com/sketch -->
    <title>840235C2-4E58-47FC-A0CA-07558FB110D5</title>
    <desc>Created with sketchtool.</desc>
    
<g class="currentLayer" style=""><title>Layer 1</title><g id="סטייל-גייד" stroke="none" stroke-width="1" fill="#1b2e4a" fill-rule="evenodd" class="" fill-opacity="1">
        <g id="Style-guide" fill="#1b2e4a" fill-opacity="1">
            <path d="M9.999999761581421,12.451202622604342 C8.51017676158142,12.451202622604342 7.297372761581414,11.231782622604442 7.297372761581414,9.733832622604496 C7.297372761581414,8.23588262260455 8.51017676158142,7.016462622604195 9.999999761581421,7.016462622604195 C11.489822761581422,7.016462622604195 12.702626761581428,8.23588262260455 12.702626761581428,9.733832622604496 C12.702626761581428,11.231782622604442 11.489822761581422,12.451202622604342 9.999999761581421,12.451202622604342 M9.999999761581421,5.657782622604373 C7.765828761581474,5.657782622604373 5.9460597615814095,7.4863426226042975 5.9460597615814095,9.733832622604496 C5.9460597615814095,11.981322622604239 7.765828761581474,13.809882622604164 9.999999761581421,13.809882622604164 C12.234170761581368,13.809882622604164 14.053939761581432,11.981322622604239 14.053939761581432,9.733832622604496 C14.053939761581432,7.4863426226042975 12.234170761581368,5.657782622604373 9.999999761581421,5.657782622604373 M16.119196761581406,16.20682262260425 L9.999999761581421,22.359392622604446 L3.8808027615814353,16.20682262260425 C0.5070237615814223,12.814642622604424 0.5070237615814223,7.294992622604242 3.8808027615814353,3.9028226226041625 C5.567691761581386,2.2056026226041467 7.782719761581461,1.357552622604544 9.999999761581421,1.357552622604544 C12.216153761581381,1.357552622604544 14.432307761581455,2.2067326226042496 16.119196761581406,3.9028226226041625 C19.49297576158142,7.294992622604242 19.49297576158142,12.814642622604424 16.119196761581406,16.20682262260425 M17.0752507615814,2.9415526226043767 C13.173333761581375,-0.9805173773956993 6.8266657615814665,-0.9805173773956993 2.924748761581441,2.9415526226043767 C-0.9749162384185864,6.863612622604251 -0.9749162384185864,13.246032622604162 2.924748761581441,17.16809262260449 L9.522535761581366,23.8007326226043 C9.65428876158137,23.934332622604416 9.82770776158145,24.00000262260437 9.999999761581421,24.00000262260437 C10.172291761581391,24.00000262260437 10.345710761581472,23.934332622604416 10.477463761581475,23.8007326226043 L17.0752507615814,17.16809262260449 C20.97491576158143,13.246032622604162 20.97491576158143,6.863612622604251 17.0752507615814,2.9415526226043767 " id="Location-point" fill="#1b2e4a" fill-opacity="1"/>
        </g>
    </g></g></svg>